<svg id="Layer_1" data-name="Layer 1" xmlns="http://www.w3.org/2000/svg" viewBox="0 0 500 1000"><line y1="50" x2="500" y2="50" stroke="#000" stroke-miterlimit="10" stroke-width="1.5"/><line y1="150" x2="500" y2="150" stroke="#000" stroke-miterlimit="10" stroke-width="1.5"/><line y1="200" x2="500" y2="200" stroke="#000" stroke-miterlimit="10" stroke-width="1.5"/><line y1="300" x2="500" y2="300" stroke="#000" stroke-miterlimit="10" stroke-width="1.5"/><line y1="350" x2="500" y2="350" stroke="#000" stroke-miterlimit="10" stroke-width="1.5"/><line y1="450" x2="500" y2="450" stroke="#000" stroke-miterlimit="10" stroke-width="1.5"/><line y1="500" x2="500" y2="500" stroke="#000" stroke-miterlimit="10" stroke-width="1.5"/><line y1="600" x2="500" y2="600" stroke="#000" stroke-miterlimit="10" stroke-width="1.5"/><line y1="650" x2="500" y2="650" stroke="#000" stroke-miterlimit="10" stroke-width="1.5"/><line y1="750" x2="500" y2="750" stroke="#000" stroke-miterlimit="10" stroke-width="1.5"/><line y1="800" x2="500" y2="800" stroke="#000" stroke-miterlimit="10" stroke-width="1.5"/><line y1="900" x2="500" y2="900" stroke="#000" stroke-miterlimit="10" stroke-width="1.5"/><line y1="950" x2="500" y2="950" stroke="#000" stroke-miterlimit="10" stroke-width="1.5"/><line x1="50" x2="50" y2="1000" stroke="#000" stroke-miterlimit="10" stroke-width="1.5"/><line x1="200" x2="200" y2="1000" stroke="#000" stroke-miterlimit="10" stroke-width="1.5"/><line x1="300" x2="300" y2="1000" stroke="#000" stroke-miterlimit="10" stroke-width="1.5"/><line x1="350" x2="350" y2="1000" stroke="#000" stroke-miterlimit="10" stroke-width="1.5"/><line x1="450" x2="450" y2="1000" stroke="#000" stroke-miterlimit="10" stroke-width="1.5"/><line x1="100" x2="100" y2="1000" fill="red" stroke="red" stroke-miterlimit="10" stroke-width="1.5"/><line x1="250" x2="250" y2="1000" fill="red" stroke="red" stroke-miterlimit="10" stroke-width="1.5"/><line x1="400" x2="400" y2="1000" fill="red" stroke="red" stroke-miterlimit="10" stroke-width="1.5"/><line x1="150" x2="150" y2="1000" stroke="#000" stroke-miterlimit="10" stroke-width="1.5"/><path d="M300,1000" stroke="#000" stroke-miterlimit="10" stroke-width="1.5"/><path d="M300,0" stroke="#000" stroke-miterlimit="10" stroke-width="1.5"/><line y1="100" x2="500" y2="100" fill="red" stroke="red" stroke-miterlimit="10" stroke-width="1.5"/><line y1="250" x2="500" y2="250" fill="red" stroke="red" stroke-miterlimit="10" stroke-width="1.5"/><line y1="400" x2="500" y2="400" fill="red" stroke="red" stroke-miterlimit="10" stroke-width="1.5"/><line y1="550" x2="500" y2="550" fill="red" stroke="red" stroke-miterlimit="10" stroke-width="1.5"/><line y1="700" x2="500" y2="700" fill="red" stroke="red" stroke-miterlimit="10" stroke-width="1.5"/><line y1="850" x2="500" y2="850" fill="red" stroke="red" stroke-miterlimit="10" stroke-width="1.5"/></svg>